<?xml version="1.0" encoding="UTF-8" standalone="no"?>
<!DOCTYPE svg PUBLIC "-//W3C//DTD SVG 1.1//EN"
 "http://www.w3.org/Graphics/SVG/1.1/DTD/svg11.dtd">
<!-- Generated by graphviz version 2.38.0 (20140413.2041)
 -->
<!-- Title: G Pages: 1 -->
<svg width="525pt" height="888pt"
 viewBox="0.00 0.00 525.28 888.00" xmlns="http://www.w3.org/2000/svg" xmlns:xlink="http://www.w3.org/1999/xlink">
<g id="graph0" class="graph" transform="scale(1 1) rotate(0) translate(4 884)">
<title>G</title>
<polygon fill="white" stroke="none" points="-4,4 -4,-884 521.277,-884 521.277,4 -4,4"/>
<g id="clust1" class="cluster"><title>cluster_Global</title>
<path fill="none" stroke="gray" d="M321.277,-8C321.277,-8 497.277,-8 497.277,-8 503.277,-8 509.277,-14 509.277,-20 509.277,-20 509.277,-860 509.277,-860 509.277,-866 503.277,-872 497.277,-872 497.277,-872 321.277,-872 321.277,-872 315.277,-872 309.277,-866 309.277,-860 309.277,-860 309.277,-20 309.277,-20 309.277,-14 315.277,-8 321.277,-8"/>
<text text-anchor="middle" x="409.277" y="-859.2" font-family="Times New Roman,serif" font-size="11.00" fill="gray">Global</text>
</g>
<g id="clust2" class="cluster"><title>cluster_\Ptypes</title>
<path fill="none" stroke="gray" d="M329.277,-16C329.277,-16 489.277,-16 489.277,-16 495.277,-16 501.277,-22 501.277,-28 501.277,-28 501.277,-832 501.277,-832 501.277,-838 495.277,-844 489.277,-844 489.277,-844 329.277,-844 329.277,-844 323.277,-844 317.277,-838 317.277,-832 317.277,-832 317.277,-28 317.277,-28 317.277,-22 323.277,-16 329.277,-16"/>
<text text-anchor="middle" x="409.277" y="-831.2" font-family="Times New Roman,serif" font-size="11.00" fill="gray">Ptypes</text>
</g>
<g id="clust4" class="cluster"><title>cluster_\Ptypes\Exceptions</title>
<path fill="none" stroke="gray" d="M350.777,-232C350.777,-232 467.777,-232 467.777,-232 473.777,-232 479.777,-238 479.777,-244 479.777,-244 479.777,-508 479.777,-508 479.777,-514 473.777,-520 467.777,-520 467.777,-520 350.777,-520 350.777,-520 344.777,-520 338.777,-514 338.777,-508 338.777,-508 338.777,-244 338.777,-244 338.777,-238 344.777,-232 350.777,-232"/>
<text text-anchor="middle" x="409.277" y="-507.2" font-family="Times New Roman,serif" font-size="11.00" fill="gray">Exceptions</text>
</g>
<g id="clust3" class="cluster"><title>cluster_\Ptypes\Test</title>
<path fill="none" stroke="gray" d="M337.277,-528C337.277,-528 481.277,-528 481.277,-528 487.277,-528 493.277,-534 493.277,-540 493.277,-540 493.277,-804 493.277,-804 493.277,-810 487.277,-816 481.277,-816 481.277,-816 337.277,-816 337.277,-816 331.277,-816 325.277,-810 325.277,-804 325.277,-804 325.277,-540 325.277,-540 325.277,-534 331.277,-528 337.277,-528"/>
<text text-anchor="middle" x="409.277" y="-803.2" font-family="Times New Roman,serif" font-size="11.00" fill="gray">Test</text>
</g>
<!-- \\Ptypes\\Test\\DLNodeTest -->
<g id="node1" class="node"><title>\\Ptypes\\Test\\DLNodeTest</title>
<polygon fill="none" stroke="black" points="451.277,-788 367.277,-788 367.277,-752 451.277,-752 451.277,-788"/>
<text text-anchor="middle" x="409.277" y="-767.2" font-family="Courier,monospace" font-size="11.00">DLNodeTest</text>
</g>
<!-- \\PHPUnit_Framework_TestCase -->
<g id="node16" class="node"><title>\\PHPUnit_Framework_TestCase</title>
<ellipse fill="none" stroke="black" cx="130.638" cy="-662" rx="130.777" ry="18"/>
<text text-anchor="middle" x="130.638" y="-658.3" font-family="Times New Roman,serif" font-size="14.00" fill="gray">\PHPUnit_Framework_TestCase</text>
</g>
<!-- \\Ptypes\\Test\\DLNodeTest&#45;&gt;\\PHPUnit_Framework_TestCase -->
<g id="edge2" class="edge"><title>\\Ptypes\\Test\\DLNodeTest&#45;&gt;\\PHPUnit_Framework_TestCase</title>
<path fill="none" stroke="black" d="M366.871,-760.299C348.955,-755.695 327.873,-749.726 309.277,-743 262.169,-725.962 210.248,-701.6 174.771,-684.049"/>
<polygon fill="none" stroke="black" points="176.181,-680.841 165.67,-679.517 173.061,-687.108 176.181,-680.841"/>
</g>
<!-- \\Ptypes\\Test\\ExceptionTest -->
<g id="node2" class="node"><title>\\Ptypes\\Test\\ExceptionTest</title>
<polygon fill="none" stroke="black" points="461.277,-734 357.277,-734 357.277,-698 461.277,-698 461.277,-734"/>
<text text-anchor="middle" x="409.277" y="-713.2" font-family="Courier,monospace" font-size="11.00">ExceptionTest</text>
</g>
<!-- \\Ptypes\\Test\\ExceptionTest&#45;&gt;\\PHPUnit_Framework_TestCase -->
<g id="edge4" class="edge"><title>\\Ptypes\\Test\\ExceptionTest&#45;&gt;\\PHPUnit_Framework_TestCase</title>
<path fill="none" stroke="black" d="M357.215,-706.033C317.871,-698.353 262.609,-687.565 216.629,-678.59"/>
<polygon fill="none" stroke="black" points="217.153,-675.127 206.668,-676.646 215.812,-681.997 217.153,-675.127"/>
</g>
<!-- \\Ptypes\\Test\\DoublyLinkedListTest -->
<g id="node3" class="node"><title>\\Ptypes\\Test\\DoublyLinkedListTest</title>
<polygon fill="none" stroke="black" points="485.277,-680 333.277,-680 333.277,-644 485.277,-644 485.277,-680"/>
<text text-anchor="middle" x="409.277" y="-659.2" font-family="Courier,monospace" font-size="11.00">DoublyLinkedListTest</text>
</g>
<!-- \\Ptypes\\Test\\DoublyLinkedListTest&#45;&gt;\\PHPUnit_Framework_TestCase -->
<g id="edge5" class="edge"><title>\\Ptypes\\Test\\DoublyLinkedListTest&#45;&gt;\\PHPUnit_Framework_TestCase</title>
<path fill="none" stroke="black" d="M333.05,-662C313.92,-662 292.741,-662 271.513,-662"/>
<polygon fill="none" stroke="black" points="271.432,-658.5 261.432,-662 271.432,-665.5 271.432,-658.5"/>
</g>
<!-- \\Ptypes\\Test\\StackTest -->
<g id="node4" class="node"><title>\\Ptypes\\Test\\StackTest</title>
<polygon fill="none" stroke="black" points="447.777,-626 370.777,-626 370.777,-590 447.777,-590 447.777,-626"/>
<text text-anchor="middle" x="409.277" y="-605.2" font-family="Courier,monospace" font-size="11.00">StackTest</text>
</g>
<!-- \\Ptypes\\Test\\StackTest&#45;&gt;\\PHPUnit_Framework_TestCase -->
<g id="edge6" class="edge"><title>\\Ptypes\\Test\\StackTest&#45;&gt;\\PHPUnit_Framework_TestCase</title>
<path fill="none" stroke="black" d="M370.68,-615.339C331.347,-623.017 268.28,-635.327 216.8,-645.376"/>
<polygon fill="none" stroke="black" points="215.813,-642.003 206.669,-647.354 217.154,-648.873 215.813,-642.003"/>
</g>
<!-- \\Ptypes\\Test\\QueueTest -->
<g id="node5" class="node"><title>\\Ptypes\\Test\\QueueTest</title>
<polygon fill="none" stroke="black" points="447.777,-572 370.777,-572 370.777,-536 447.777,-536 447.777,-572"/>
<text text-anchor="middle" x="409.277" y="-551.2" font-family="Courier,monospace" font-size="11.00">QueueTest</text>
</g>
<!-- \\Ptypes\\Test\\QueueTest&#45;&gt;\\PHPUnit_Framework_TestCase -->
<g id="edge13" class="edge"><title>\\Ptypes\\Test\\QueueTest&#45;&gt;\\PHPUnit_Framework_TestCase</title>
<path fill="none" stroke="black" d="M370.694,-562.726C352.007,-567.448 329.213,-573.79 309.277,-581 262.169,-598.038 210.248,-622.4 174.771,-639.951"/>
<polygon fill="none" stroke="black" points="173.061,-636.892 165.67,-644.483 176.181,-643.159 173.061,-636.892"/>
</g>
<!-- \\Ptypes\\Exceptions\\IndexOutOfBounds -->
<g id="node6" class="node"><title>\\Ptypes\\Exceptions\\IndexOutOfBounds</title>
<polygon fill="none" stroke="black" points="471.777,-492 346.777,-492 346.777,-456 471.777,-456 471.777,-492"/>
<text text-anchor="middle" x="409.277" y="-471.2" font-family="Courier,monospace" font-size="11.00">IndexOutOfBounds</text>
</g>
<!-- \\Exception -->
<g id="node17" class="node"><title>\\Exception</title>
<ellipse fill="none" stroke="black" cx="130.638" cy="-366" rx="50.0912" ry="18"/>
<text text-anchor="middle" x="130.638" y="-362.3" font-family="Times New Roman,serif" font-size="14.00" fill="gray">\Exception</text>
</g>
<!-- \\Ptypes\\Exceptions\\IndexOutOfBounds&#45;&gt;\\Exception -->
<g id="edge3" class="edge"><title>\\Ptypes\\Exceptions\\IndexOutOfBounds&#45;&gt;\\Exception</title>
<path fill="none" stroke="black" d="M346.533,-458.818C334.084,-455.295 321.172,-451.302 309.277,-447 259.536,-429.01 204.428,-402.854 168.98,-385.172"/>
<polygon fill="none" stroke="black" points="170.473,-382.005 159.965,-380.647 167.332,-388.261 170.473,-382.005"/>
</g>
<!-- \\Ptypes\\Exceptions\\UnexpectedType -->
<g id="node7" class="node"><title>\\Ptypes\\Exceptions\\UnexpectedType</title>
<polygon fill="none" stroke="black" points="464.777,-438 353.777,-438 353.777,-402 464.777,-402 464.777,-438"/>
<text text-anchor="middle" x="409.277" y="-417.2" font-family="Courier,monospace" font-size="11.00">UnexpectedType</text>
</g>
<!-- \\Ptypes\\Exceptions\\UnexpectedType&#45;&gt;\\Exception -->
<g id="edge7" class="edge"><title>\\Ptypes\\Exceptions\\UnexpectedType&#45;&gt;\\Exception</title>
<path fill="none" stroke="black" d="M353.622,-409.331C304.816,-399.804 233.749,-385.932 185.26,-376.467"/>
<polygon fill="none" stroke="black" points="185.758,-372.998 175.272,-374.517 184.416,-379.868 185.758,-372.998"/>
</g>
<!-- \\Ptypes\\Exceptions\\StackOverflow -->
<g id="node8" class="node"><title>\\Ptypes\\Exceptions\\StackOverflow</title>
<polygon fill="none" stroke="black" points="461.277,-384 357.277,-384 357.277,-348 461.277,-348 461.277,-384"/>
<text text-anchor="middle" x="409.277" y="-363.2" font-family="Courier,monospace" font-size="11.00">StackOverflow</text>
</g>
<!-- \\Ptypes\\Exceptions\\StackOverflow&#45;&gt;\\Exception -->
<g id="edge8" class="edge"><title>\\Ptypes\\Exceptions\\StackOverflow&#45;&gt;\\Exception</title>
<path fill="none" stroke="black" d="M357.215,-366C310.283,-366 240.698,-366 191.24,-366"/>
<polygon fill="none" stroke="black" points="191.007,-362.5 181.007,-366 191.007,-369.5 191.007,-362.5"/>
</g>
<!-- \\Ptypes\\Exceptions\\StackUnderflow -->
<g id="node9" class="node"><title>\\Ptypes\\Exceptions\\StackUnderflow</title>
<polygon fill="none" stroke="black" points="464.777,-330 353.777,-330 353.777,-294 464.777,-294 464.777,-330"/>
<text text-anchor="middle" x="409.277" y="-309.2" font-family="Courier,monospace" font-size="11.00">StackUnderflow</text>
</g>
<!-- \\Ptypes\\Exceptions\\StackUnderflow&#45;&gt;\\Exception -->
<g id="edge9" class="edge"><title>\\Ptypes\\Exceptions\\StackUnderflow&#45;&gt;\\Exception</title>
<path fill="none" stroke="black" d="M353.622,-322.669C304.816,-332.196 233.749,-346.068 185.26,-355.533"/>
<polygon fill="none" stroke="black" points="184.416,-352.132 175.272,-357.483 185.758,-359.002 184.416,-352.132"/>
</g>
<!-- \\Ptypes\\Exceptions\\InvalidArgument -->
<g id="node10" class="node"><title>\\Ptypes\\Exceptions\\InvalidArgument</title>
<polygon fill="none" stroke="black" points="468.277,-276 350.277,-276 350.277,-240 468.277,-240 468.277,-276"/>
<text text-anchor="middle" x="409.277" y="-255.2" font-family="Courier,monospace" font-size="11.00">InvalidArgument</text>
</g>
<!-- \\Ptypes\\Exceptions\\InvalidArgument&#45;&gt;\\Exception -->
<g id="edge10" class="edge"><title>\\Ptypes\\Exceptions\\InvalidArgument&#45;&gt;\\Exception</title>
<path fill="none" stroke="black" d="M350.201,-272.153C336.639,-275.921 322.344,-280.274 309.277,-285 259.536,-302.99 204.428,-329.146 168.98,-346.828"/>
<polygon fill="none" stroke="black" points="167.332,-343.739 159.965,-351.353 170.473,-349.995 167.332,-343.739"/>
</g>
<!-- \\Ptypes\\DoublyLinkedList -->
<g id="node11" class="node"><title>\\Ptypes\\DoublyLinkedList</title>
<polygon fill="none" stroke="black" points="471.777,-222 346.777,-222 346.777,-186 471.777,-186 471.777,-222"/>
<text text-anchor="middle" x="409.277" y="-201.2" font-family="Courier,monospace" font-size="11.00">DoublyLinkedList</text>
</g>
<!-- \\Countable -->
<g id="node15" class="node"><title>\\Countable</title>
<ellipse fill="none" stroke="black" cx="130.638" cy="-96" rx="50.0912" ry="18"/>
<text text-anchor="middle" x="130.638" y="-92.3" font-family="Times New Roman,serif" font-size="14.00" fill="gray">\Countable</text>
</g>
<!-- \\Ptypes\\DoublyLinkedList&#45;&gt;\\Countable -->
<g id="edge1" class="edge"><title>\\Ptypes\\DoublyLinkedList&#45;&gt;\\Countable</title>
<path fill="none" stroke="black" stroke-dasharray="1,5" d="M346.533,-188.818C334.084,-185.295 321.172,-181.302 309.277,-177 259.536,-159.01 204.428,-132.854 168.98,-115.172"/>
<polygon fill="none" stroke="black" points="170.473,-112.005 159.965,-110.647 167.332,-118.261 170.473,-112.005"/>
</g>
<!-- \\Ptypes\\DLNode -->
<g id="node12" class="node"><title>\\Ptypes\\DLNode</title>
<polygon fill="none" stroke="black" points="437.777,-168 380.777,-168 380.777,-132 437.777,-132 437.777,-168"/>
<text text-anchor="middle" x="409.277" y="-147.2" font-family="Courier,monospace" font-size="11.00">DLNode</text>
</g>
<!-- \\Ptypes\\Stack -->
<g id="node13" class="node"><title>\\Ptypes\\Stack</title>
<polygon fill="none" stroke="black" points="436.277,-114 382.277,-114 382.277,-78 436.277,-78 436.277,-114"/>
<text text-anchor="middle" x="409.277" y="-93.2" font-family="Courier,monospace" font-size="11.00">Stack</text>
</g>
<!-- \\Ptypes\\Stack&#45;&gt;\\Countable -->
<g id="edge11" class="edge"><title>\\Ptypes\\Stack&#45;&gt;\\Countable</title>
<path fill="none" stroke="black" stroke-dasharray="1,5" d="M382.251,-96C338.793,-96 250.382,-96 191.06,-96"/>
<polygon fill="none" stroke="black" points="190.706,-92.5001 180.706,-96 190.706,-99.5001 190.706,-92.5001"/>
</g>
<!-- \\Ptypes\\Queue -->
<g id="node14" class="node"><title>\\Ptypes\\Queue</title>
<polygon fill="none" stroke="black" points="436.277,-60 382.277,-60 382.277,-24 436.277,-24 436.277,-60"/>
<text text-anchor="middle" x="409.277" y="-39.2" font-family="Courier,monospace" font-size="11.00">Queue</text>
</g>
<!-- \\Ptypes\\Queue&#45;&gt;\\Countable -->
<g id="edge12" class="edge"><title>\\Ptypes\\Queue&#45;&gt;\\Countable</title>
<path fill="none" stroke="black" stroke-dasharray="1,5" d="M382.251,-47.0802C337.241,-55.8662 244.01,-74.0651 184.819,-85.6192"/>
<polygon fill="none" stroke="black" points="184.048,-82.2035 174.904,-87.5546 185.389,-89.0739 184.048,-82.2035"/>
</g>
</g>
</svg>
