<?xml version="1.0" encoding="UTF-8" standalone="no"?>
<!DOCTYPE svg PUBLIC "-//W3C//DTD SVG 1.1//EN"
 "http://www.w3.org/Graphics/SVG/1.1/DTD/svg11.dtd">
<!-- Generated by graphviz version 2.38.0 (20140413.2041)
 -->
<!-- Title: G Pages: 1 -->
<svg width="491pt" height="510pt"
 viewBox="0.00 0.00 491.28 510.00" xmlns="http://www.w3.org/2000/svg" xmlns:xlink="http://www.w3.org/1999/xlink">
<g id="graph0" class="graph" transform="scale(1 1) rotate(0) translate(4 506)">
<title>G</title>
<polygon fill="white" stroke="none" points="-4,4 -4,-506 487.277,-506 487.277,4 -4,4"/>
<g id="clust1" class="cluster"><title>cluster_Global</title>
<path fill="none" stroke="gray" d="M321.277,-8C321.277,-8 463.277,-8 463.277,-8 469.277,-8 475.277,-14 475.277,-20 475.277,-20 475.277,-482 475.277,-482 475.277,-488 469.277,-494 463.277,-494 463.277,-494 321.277,-494 321.277,-494 315.277,-494 309.277,-488 309.277,-482 309.277,-482 309.277,-20 309.277,-20 309.277,-14 315.277,-8 321.277,-8"/>
<text text-anchor="middle" x="392.277" y="-481.2" font-family="Times New Roman,serif" font-size="11.00" fill="gray">Global</text>
</g>
<g id="clust2" class="cluster"><title>cluster_\Ptypes</title>
<path fill="none" stroke="gray" d="M329.277,-16C329.277,-16 455.277,-16 455.277,-16 461.277,-16 467.277,-22 467.277,-28 467.277,-28 467.277,-454 467.277,-454 467.277,-460 461.277,-466 455.277,-466 455.277,-466 329.277,-466 329.277,-466 323.277,-466 317.277,-460 317.277,-454 317.277,-454 317.277,-28 317.277,-28 317.277,-22 323.277,-16 329.277,-16"/>
<text text-anchor="middle" x="392.277" y="-453.2" font-family="Times New Roman,serif" font-size="11.00" fill="gray">Ptypes</text>
</g>
<g id="clust3" class="cluster"><title>cluster_\Ptypes\Test</title>
<path fill="none" stroke="gray" d="M344.277,-312C344.277,-312 440.277,-312 440.277,-312 446.277,-312 452.277,-318 452.277,-324 452.277,-324 452.277,-426 452.277,-426 452.277,-432 446.277,-438 440.277,-438 440.277,-438 344.277,-438 344.277,-438 338.277,-438 332.277,-432 332.277,-426 332.277,-426 332.277,-324 332.277,-324 332.277,-318 338.277,-312 344.277,-312"/>
<text text-anchor="middle" x="392.277" y="-425.2" font-family="Times New Roman,serif" font-size="11.00" fill="gray">Test</text>
</g>
<g id="clust4" class="cluster"><title>cluster_\Ptypes\Exceptions</title>
<path fill="none" stroke="gray" d="M337.277,-70C337.277,-70 447.277,-70 447.277,-70 453.277,-70 459.277,-76 459.277,-82 459.277,-82 459.277,-292 459.277,-292 459.277,-298 453.277,-304 447.277,-304 447.277,-304 337.277,-304 337.277,-304 331.277,-304 325.277,-298 325.277,-292 325.277,-292 325.277,-82 325.277,-82 325.277,-76 331.277,-70 337.277,-70"/>
<text text-anchor="middle" x="392.277" y="-291.2" font-family="Times New Roman,serif" font-size="11.00" fill="gray">Exceptions</text>
</g>
<!-- \\Ptypes\\Test\\ExceptionTest -->
<g id="node1" class="node"><title>\\Ptypes\\Test\\ExceptionTest</title>
<polygon fill="none" stroke="black" points="444.277,-410 340.277,-410 340.277,-374 444.277,-374 444.277,-410"/>
<text text-anchor="middle" x="392.277" y="-389.2" font-family="Courier,monospace" font-size="11.00">ExceptionTest</text>
</g>
<!-- \\PHPUnit_Framework_TestCase -->
<g id="node8" class="node"><title>\\PHPUnit_Framework_TestCase</title>
<ellipse fill="none" stroke="black" cx="130.638" cy="-365" rx="130.777" ry="18"/>
<text text-anchor="middle" x="130.638" y="-361.3" font-family="Times New Roman,serif" font-size="14.00" fill="gray">\PHPUnit_Framework_TestCase</text>
</g>
<!-- \\Ptypes\\Test\\ExceptionTest&#45;&gt;\\PHPUnit_Framework_TestCase -->
<g id="edge1" class="edge"><title>\\Ptypes\\Test\\ExceptionTest&#45;&gt;\\PHPUnit_Framework_TestCase</title>
<path fill="none" stroke="black" d="M339.981,-386.666C312.926,-383.852 278.584,-380.281 245.625,-376.854"/>
<polygon fill="none" stroke="black" points="245.758,-373.349 235.45,-375.795 245.034,-380.311 245.758,-373.349"/>
</g>
<!-- \\Ptypes\\Test\\StackTest -->
<g id="node2" class="node"><title>\\Ptypes\\Test\\StackTest</title>
<polygon fill="none" stroke="black" points="430.777,-356 353.777,-356 353.777,-320 430.777,-320 430.777,-356"/>
<text text-anchor="middle" x="392.277" y="-335.2" font-family="Courier,monospace" font-size="11.00">StackTest</text>
</g>
<!-- \\Ptypes\\Test\\StackTest&#45;&gt;\\PHPUnit_Framework_TestCase -->
<g id="edge2" class="edge"><title>\\Ptypes\\Test\\StackTest&#45;&gt;\\PHPUnit_Framework_TestCase</title>
<path fill="none" stroke="black" d="M353.523,-341.926C325.055,-344.886 284.417,-349.112 245.681,-353.141"/>
<polygon fill="none" stroke="black" points="244.937,-349.699 235.353,-354.215 245.661,-356.661 244.937,-349.699"/>
</g>
<!-- \\Ptypes\\Exceptions\\UnexpectedType -->
<g id="node3" class="node"><title>\\Ptypes\\Exceptions\\UnexpectedType</title>
<polygon fill="none" stroke="black" points="447.777,-276 336.777,-276 336.777,-240 447.777,-240 447.777,-276"/>
<text text-anchor="middle" x="392.277" y="-255.2" font-family="Courier,monospace" font-size="11.00">UnexpectedType</text>
</g>
<!-- \\Exception -->
<g id="node9" class="node"><title>\\Exception</title>
<ellipse fill="none" stroke="black" cx="130.638" cy="-177" rx="50.0912" ry="18"/>
<text text-anchor="middle" x="130.638" y="-173.3" font-family="Times New Roman,serif" font-size="14.00" fill="gray">\Exception</text>
</g>
<!-- \\Ptypes\\Exceptions\\UnexpectedType&#45;&gt;\\Exception -->
<g id="edge3" class="edge"><title>\\Ptypes\\Exceptions\\UnexpectedType&#45;&gt;\\Exception</title>
<path fill="none" stroke="black" d="M336.531,-240.921C289.78,-226.336 223.237,-205.576 178.806,-191.715"/>
<polygon fill="none" stroke="black" points="179.711,-188.331 169.122,-188.694 177.626,-195.013 179.711,-188.331"/>
</g>
<!-- \\Ptypes\\Exceptions\\StackOverflow -->
<g id="node4" class="node"><title>\\Ptypes\\Exceptions\\StackOverflow</title>
<polygon fill="none" stroke="black" points="444.277,-222 340.277,-222 340.277,-186 444.277,-186 444.277,-222"/>
<text text-anchor="middle" x="392.277" y="-201.2" font-family="Courier,monospace" font-size="11.00">StackOverflow</text>
</g>
<!-- \\Ptypes\\Exceptions\\StackOverflow&#45;&gt;\\Exception -->
<g id="edge4" class="edge"><title>\\Ptypes\\Exceptions\\StackOverflow&#45;&gt;\\Exception</title>
<path fill="none" stroke="black" d="M339.981,-198.666C296.518,-194.146 234.246,-187.67 189.113,-182.977"/>
<polygon fill="none" stroke="black" points="189.203,-179.467 178.895,-181.914 188.479,-186.43 189.203,-179.467"/>
</g>
<!-- \\Ptypes\\Exceptions\\StackUnderflow -->
<g id="node5" class="node"><title>\\Ptypes\\Exceptions\\StackUnderflow</title>
<polygon fill="none" stroke="black" points="447.777,-168 336.777,-168 336.777,-132 447.777,-132 447.777,-168"/>
<text text-anchor="middle" x="392.277" y="-147.2" font-family="Courier,monospace" font-size="11.00">StackUnderflow</text>
</g>
<!-- \\Ptypes\\Exceptions\\StackUnderflow&#45;&gt;\\Exception -->
<g id="edge5" class="edge"><title>\\Ptypes\\Exceptions\\StackUnderflow&#45;&gt;\\Exception</title>
<path fill="none" stroke="black" d="M336.531,-155.693C293.191,-160.2 232.841,-166.476 188.867,-171.049"/>
<polygon fill="none" stroke="black" points="188.49,-167.569 178.905,-172.085 189.214,-174.531 188.49,-167.569"/>
</g>
<!-- \\Ptypes\\Exceptions\\InvalidArgument -->
<g id="node6" class="node"><title>\\Ptypes\\Exceptions\\InvalidArgument</title>
<polygon fill="none" stroke="black" points="451.277,-114 333.277,-114 333.277,-78 451.277,-78 451.277,-114"/>
<text text-anchor="middle" x="392.277" y="-93.2" font-family="Courier,monospace" font-size="11.00">InvalidArgument</text>
</g>
<!-- \\Ptypes\\Exceptions\\InvalidArgument&#45;&gt;\\Exception -->
<g id="edge6" class="edge"><title>\\Ptypes\\Exceptions\\InvalidArgument&#45;&gt;\\Exception</title>
<path fill="none" stroke="black" d="M333.332,-114.077C286.744,-128.611 222.122,-148.772 178.695,-162.32"/>
<polygon fill="none" stroke="black" points="177.454,-159.04 168.951,-165.36 179.539,-165.723 177.454,-159.04"/>
</g>
<!-- \\Ptypes\\Stack -->
<g id="node7" class="node"><title>\\Ptypes\\Stack</title>
<polygon fill="none" stroke="black" points="419.277,-60 365.277,-60 365.277,-24 419.277,-24 419.277,-60"/>
<text text-anchor="middle" x="392.277" y="-39.2" font-family="Courier,monospace" font-size="11.00">Stack</text>
</g>
<!-- \\Countable -->
<g id="node10" class="node"><title>\\Countable</title>
<ellipse fill="none" stroke="black" cx="130.638" cy="-42" rx="50.0912" ry="18"/>
<text text-anchor="middle" x="130.638" y="-38.3" font-family="Times New Roman,serif" font-size="14.00" fill="gray">\Countable</text>
</g>
<!-- \\Ptypes\\Stack&#45;&gt;\\Countable -->
<g id="edge7" class="edge"><title>\\Ptypes\\Stack&#45;&gt;\\Countable</title>
<path fill="none" stroke="black" stroke-dasharray="1,5" d="M364.952,-42C324.5,-42 246.002,-42 191.283,-42"/>
<polygon fill="none" stroke="black" points="191.016,-38.5001 181.016,-42 191.016,-45.5001 191.016,-38.5001"/>
</g>
</g>
</svg>
