<?xml version="1.0" encoding="UTF-8" standalone="no"?>
<!DOCTYPE svg PUBLIC "-//W3C//DTD SVG 1.1//EN"
 "http://www.w3.org/Graphics/SVG/1.1/DTD/svg11.dtd">
<!-- Generated by graphviz version 2.38.0 (20140413.2041)
 -->
<!-- Title: G Pages: 1 -->
<svg width="525pt" height="780pt"
 viewBox="0.00 0.00 525.28 780.00" xmlns="http://www.w3.org/2000/svg" xmlns:xlink="http://www.w3.org/1999/xlink">
<g id="graph0" class="graph" transform="scale(1 1) rotate(0) translate(4 776)">
<title>G</title>
<polygon fill="white" stroke="none" points="-4,4 -4,-776 521.277,-776 521.277,4 -4,4"/>
<g id="clust1" class="cluster"><title>cluster_Global</title>
<path fill="none" stroke="gray" d="M321.277,-8C321.277,-8 497.277,-8 497.277,-8 503.277,-8 509.277,-14 509.277,-20 509.277,-20 509.277,-752 509.277,-752 509.277,-758 503.277,-764 497.277,-764 497.277,-764 321.277,-764 321.277,-764 315.277,-764 309.277,-758 309.277,-752 309.277,-752 309.277,-20 309.277,-20 309.277,-14 315.277,-8 321.277,-8"/>
<text text-anchor="middle" x="409.277" y="-751.2" font-family="Times New Roman,serif" font-size="11.00" fill="gray">Global</text>
</g>
<g id="clust2" class="cluster"><title>cluster_\Ptypes</title>
<path fill="none" stroke="gray" d="M329.277,-16C329.277,-16 489.277,-16 489.277,-16 495.277,-16 501.277,-22 501.277,-28 501.277,-28 501.277,-724 501.277,-724 501.277,-730 495.277,-736 489.277,-736 489.277,-736 329.277,-736 329.277,-736 323.277,-736 317.277,-730 317.277,-724 317.277,-724 317.277,-28 317.277,-28 317.277,-22 323.277,-16 329.277,-16"/>
<text text-anchor="middle" x="409.277" y="-723.2" font-family="Times New Roman,serif" font-size="11.00" fill="gray">Ptypes</text>
</g>
<g id="clust4" class="cluster"><title>cluster_\Ptypes\Exceptions</title>
<path fill="none" stroke="gray" d="M350.777,-178C350.777,-178 467.777,-178 467.777,-178 473.777,-178 479.777,-184 479.777,-190 479.777,-190 479.777,-454 479.777,-454 479.777,-460 473.777,-466 467.777,-466 467.777,-466 350.777,-466 350.777,-466 344.777,-466 338.777,-460 338.777,-454 338.777,-454 338.777,-190 338.777,-190 338.777,-184 344.777,-178 350.777,-178"/>
<text text-anchor="middle" x="409.277" y="-453.2" font-family="Times New Roman,serif" font-size="11.00" fill="gray">Exceptions</text>
</g>
<g id="clust3" class="cluster"><title>cluster_\Ptypes\Test</title>
<path fill="none" stroke="gray" d="M337.277,-474C337.277,-474 481.277,-474 481.277,-474 487.277,-474 493.277,-480 493.277,-486 493.277,-486 493.277,-696 493.277,-696 493.277,-702 487.277,-708 481.277,-708 481.277,-708 337.277,-708 337.277,-708 331.277,-708 325.277,-702 325.277,-696 325.277,-696 325.277,-486 325.277,-486 325.277,-480 331.277,-474 337.277,-474"/>
<text text-anchor="middle" x="409.277" y="-695.2" font-family="Times New Roman,serif" font-size="11.00" fill="gray">Test</text>
</g>
<!-- \\Ptypes\\Test\\DLNodeTest -->
<g id="node1" class="node"><title>\\Ptypes\\Test\\DLNodeTest</title>
<polygon fill="none" stroke="black" points="451.277,-680 367.277,-680 367.277,-644 451.277,-644 451.277,-680"/>
<text text-anchor="middle" x="409.277" y="-659.2" font-family="Courier,monospace" font-size="11.00">DLNodeTest</text>
</g>
<!-- \\PHPUnit_Framework_TestCase -->
<g id="node14" class="node"><title>\\PHPUnit_Framework_TestCase</title>
<ellipse fill="none" stroke="black" cx="130.638" cy="-581" rx="130.777" ry="18"/>
<text text-anchor="middle" x="130.638" y="-577.3" font-family="Times New Roman,serif" font-size="14.00" fill="gray">\PHPUnit_Framework_TestCase</text>
</g>
<!-- \\Ptypes\\Test\\DLNodeTest&#45;&gt;\\PHPUnit_Framework_TestCase -->
<g id="edge2" class="edge"><title>\\Ptypes\\Test\\DLNodeTest&#45;&gt;\\PHPUnit_Framework_TestCase</title>
<path fill="none" stroke="black" d="M367.261,-651.099C349.414,-646.281 328.278,-640.478 309.277,-635 270.939,-623.948 228.145,-610.958 194.167,-600.49"/>
<polygon fill="none" stroke="black" points="194.963,-597.072 184.376,-597.467 192.899,-603.761 194.963,-597.072"/>
</g>
<!-- \\Ptypes\\Test\\ExceptionTest -->
<g id="node2" class="node"><title>\\Ptypes\\Test\\ExceptionTest</title>
<polygon fill="none" stroke="black" points="461.277,-626 357.277,-626 357.277,-590 461.277,-590 461.277,-626"/>
<text text-anchor="middle" x="409.277" y="-605.2" font-family="Courier,monospace" font-size="11.00">ExceptionTest</text>
</g>
<!-- \\Ptypes\\Test\\ExceptionTest&#45;&gt;\\PHPUnit_Framework_TestCase -->
<g id="edge4" class="edge"><title>\\Ptypes\\Test\\ExceptionTest&#45;&gt;\\PHPUnit_Framework_TestCase</title>
<path fill="none" stroke="black" d="M357.215,-603.016C326.474,-600.016 286.015,-596.067 247.859,-592.343"/>
<polygon fill="none" stroke="black" points="247.986,-588.839 237.694,-591.351 247.306,-595.806 247.986,-588.839"/>
</g>
<!-- \\Ptypes\\Test\\DoublyLinkedListTest -->
<g id="node3" class="node"><title>\\Ptypes\\Test\\DoublyLinkedListTest</title>
<polygon fill="none" stroke="black" points="485.277,-572 333.277,-572 333.277,-536 485.277,-536 485.277,-572"/>
<text text-anchor="middle" x="409.277" y="-551.2" font-family="Courier,monospace" font-size="11.00">DoublyLinkedListTest</text>
</g>
<!-- \\Ptypes\\Test\\DoublyLinkedListTest&#45;&gt;\\PHPUnit_Framework_TestCase -->
<g id="edge5" class="edge"><title>\\Ptypes\\Test\\DoublyLinkedListTest&#45;&gt;\\PHPUnit_Framework_TestCase</title>
<path fill="none" stroke="black" d="M333.05,-561.342C306.787,-563.905 276.662,-566.846 247.851,-569.658"/>
<polygon fill="none" stroke="black" points="247.336,-566.191 237.723,-570.646 248.016,-573.158 247.336,-566.191"/>
</g>
<!-- \\Ptypes\\Test\\StackTest -->
<g id="node4" class="node"><title>\\Ptypes\\Test\\StackTest</title>
<polygon fill="none" stroke="black" points="447.777,-518 370.777,-518 370.777,-482 447.777,-482 447.777,-518"/>
<text text-anchor="middle" x="409.277" y="-497.2" font-family="Courier,monospace" font-size="11.00">StackTest</text>
</g>
<!-- \\Ptypes\\Test\\StackTest&#45;&gt;\\PHPUnit_Framework_TestCase -->
<g id="edge6" class="edge"><title>\\Ptypes\\Test\\StackTest&#45;&gt;\\PHPUnit_Framework_TestCase</title>
<path fill="none" stroke="black" d="M370.597,-510.002C352.088,-514.985 329.476,-521.177 309.277,-527 270.939,-538.052 228.145,-551.042 194.167,-561.51"/>
<polygon fill="none" stroke="black" points="192.899,-558.239 184.376,-564.533 194.963,-564.928 192.899,-558.239"/>
</g>
<!-- \\Ptypes\\Exceptions\\IndexOutOfBounds -->
<g id="node5" class="node"><title>\\Ptypes\\Exceptions\\IndexOutOfBounds</title>
<polygon fill="none" stroke="black" points="471.777,-438 346.777,-438 346.777,-402 471.777,-402 471.777,-438"/>
<text text-anchor="middle" x="409.277" y="-417.2" font-family="Courier,monospace" font-size="11.00">IndexOutOfBounds</text>
</g>
<!-- \\Exception -->
<g id="node15" class="node"><title>\\Exception</title>
<ellipse fill="none" stroke="black" cx="130.638" cy="-312" rx="50.0912" ry="18"/>
<text text-anchor="middle" x="130.638" y="-308.3" font-family="Times New Roman,serif" font-size="14.00" fill="gray">\Exception</text>
</g>
<!-- \\Ptypes\\Exceptions\\IndexOutOfBounds&#45;&gt;\\Exception -->
<g id="edge3" class="edge"><title>\\Ptypes\\Exceptions\\IndexOutOfBounds&#45;&gt;\\Exception</title>
<path fill="none" stroke="black" d="M346.533,-404.818C334.084,-401.295 321.172,-397.302 309.277,-393 259.536,-375.01 204.428,-348.854 168.98,-331.172"/>
<polygon fill="none" stroke="black" points="170.473,-328.005 159.965,-326.647 167.332,-334.261 170.473,-328.005"/>
</g>
<!-- \\Ptypes\\Exceptions\\UnexpectedType -->
<g id="node6" class="node"><title>\\Ptypes\\Exceptions\\UnexpectedType</title>
<polygon fill="none" stroke="black" points="464.777,-384 353.777,-384 353.777,-348 464.777,-348 464.777,-384"/>
<text text-anchor="middle" x="409.277" y="-363.2" font-family="Courier,monospace" font-size="11.00">UnexpectedType</text>
</g>
<!-- \\Ptypes\\Exceptions\\UnexpectedType&#45;&gt;\\Exception -->
<g id="edge7" class="edge"><title>\\Ptypes\\Exceptions\\UnexpectedType&#45;&gt;\\Exception</title>
<path fill="none" stroke="black" d="M353.622,-355.331C304.816,-345.804 233.749,-331.932 185.26,-322.467"/>
<polygon fill="none" stroke="black" points="185.758,-318.998 175.272,-320.517 184.416,-325.868 185.758,-318.998"/>
</g>
<!-- \\Ptypes\\Exceptions\\StackOverflow -->
<g id="node7" class="node"><title>\\Ptypes\\Exceptions\\StackOverflow</title>
<polygon fill="none" stroke="black" points="461.277,-330 357.277,-330 357.277,-294 461.277,-294 461.277,-330"/>
<text text-anchor="middle" x="409.277" y="-309.2" font-family="Courier,monospace" font-size="11.00">StackOverflow</text>
</g>
<!-- \\Ptypes\\Exceptions\\StackOverflow&#45;&gt;\\Exception -->
<g id="edge8" class="edge"><title>\\Ptypes\\Exceptions\\StackOverflow&#45;&gt;\\Exception</title>
<path fill="none" stroke="black" d="M357.215,-312C310.283,-312 240.698,-312 191.24,-312"/>
<polygon fill="none" stroke="black" points="191.007,-308.5 181.007,-312 191.007,-315.5 191.007,-308.5"/>
</g>
<!-- \\Ptypes\\Exceptions\\StackUnderflow -->
<g id="node8" class="node"><title>\\Ptypes\\Exceptions\\StackUnderflow</title>
<polygon fill="none" stroke="black" points="464.777,-276 353.777,-276 353.777,-240 464.777,-240 464.777,-276"/>
<text text-anchor="middle" x="409.277" y="-255.2" font-family="Courier,monospace" font-size="11.00">StackUnderflow</text>
</g>
<!-- \\Ptypes\\Exceptions\\StackUnderflow&#45;&gt;\\Exception -->
<g id="edge9" class="edge"><title>\\Ptypes\\Exceptions\\StackUnderflow&#45;&gt;\\Exception</title>
<path fill="none" stroke="black" d="M353.622,-268.669C304.816,-278.196 233.749,-292.068 185.26,-301.533"/>
<polygon fill="none" stroke="black" points="184.416,-298.132 175.272,-303.483 185.758,-305.002 184.416,-298.132"/>
</g>
<!-- \\Ptypes\\Exceptions\\InvalidArgument -->
<g id="node9" class="node"><title>\\Ptypes\\Exceptions\\InvalidArgument</title>
<polygon fill="none" stroke="black" points="468.277,-222 350.277,-222 350.277,-186 468.277,-186 468.277,-222"/>
<text text-anchor="middle" x="409.277" y="-201.2" font-family="Courier,monospace" font-size="11.00">InvalidArgument</text>
</g>
<!-- \\Ptypes\\Exceptions\\InvalidArgument&#45;&gt;\\Exception -->
<g id="edge10" class="edge"><title>\\Ptypes\\Exceptions\\InvalidArgument&#45;&gt;\\Exception</title>
<path fill="none" stroke="black" d="M350.201,-218.153C336.639,-221.921 322.344,-226.274 309.277,-231 259.536,-248.99 204.428,-275.146 168.98,-292.828"/>
<polygon fill="none" stroke="black" points="167.332,-289.739 159.965,-297.353 170.473,-295.995 167.332,-289.739"/>
</g>
<!-- \\Ptypes\\DoublyLinkedList -->
<g id="node10" class="node"><title>\\Ptypes\\DoublyLinkedList</title>
<polygon fill="none" stroke="black" points="471.777,-60 346.777,-60 346.777,-24 471.777,-24 471.777,-60"/>
<text text-anchor="middle" x="409.277" y="-39.2" font-family="Courier,monospace" font-size="11.00">DoublyLinkedList</text>
</g>
<!-- \\Countable -->
<g id="node13" class="node"><title>\\Countable</title>
<ellipse fill="none" stroke="black" cx="130.638" cy="-96" rx="50.0912" ry="18"/>
<text text-anchor="middle" x="130.638" y="-92.3" font-family="Times New Roman,serif" font-size="14.00" fill="gray">\Countable</text>
</g>
<!-- \\Ptypes\\DoublyLinkedList&#45;&gt;\\Countable -->
<g id="edge1" class="edge"><title>\\Ptypes\\DoublyLinkedList&#45;&gt;\\Countable</title>
<path fill="none" stroke="black" stroke-dasharray="1,5" d="M346.538,-54.0514C298.026,-63.5211 231.161,-76.5731 184.959,-85.5917"/>
<polygon fill="none" stroke="black" points="184.283,-82.1577 175.138,-87.5088 185.624,-89.028 184.283,-82.1577"/>
</g>
<!-- \\Ptypes\\DLNode -->
<g id="node11" class="node"><title>\\Ptypes\\DLNode</title>
<polygon fill="none" stroke="black" points="437.777,-114 380.777,-114 380.777,-78 437.777,-78 437.777,-114"/>
<text text-anchor="middle" x="409.277" y="-93.2" font-family="Courier,monospace" font-size="11.00">DLNode</text>
</g>
<!-- \\Ptypes\\Stack -->
<g id="node12" class="node"><title>\\Ptypes\\Stack</title>
<polygon fill="none" stroke="black" points="436.277,-168 382.277,-168 382.277,-132 436.277,-132 436.277,-168"/>
<text text-anchor="middle" x="409.277" y="-147.2" font-family="Courier,monospace" font-size="11.00">Stack</text>
</g>
<!-- \\Ptypes\\Stack&#45;&gt;\\Countable -->
<g id="edge11" class="edge"><title>\\Ptypes\\Stack&#45;&gt;\\Countable</title>
<path fill="none" stroke="black" stroke-dasharray="1,5" d="M382.251,-144.92C337.241,-136.134 244.01,-117.935 184.819,-106.381"/>
<polygon fill="none" stroke="black" points="185.389,-102.926 174.904,-104.445 184.048,-109.796 185.389,-102.926"/>
</g>
</g>
</svg>
